# xmcd
#
# Track frame offsets:
#	150
#	17687
#	42575
#	52435
#	64475
#	89137
#	106900
#	131487
#	153575
#	174162
#	183987
#	200787
#	238737
#	253987
#	285687
#	304912
#	322237
#	335675
#
# Disc length: 4665 seconds
#
# Revision: 1
# Processed by: cddbd v1.5.1PL0 Copyright (c) Steve Scherf et al.
# Submitted via: CDex 1.50Beta5
#
DISCID=24123712
DTITLE=ミッシャ・マイスキー - 白鳥〜マイスキー珠玉のチェロ名曲集
DYEAR=1900
DGENRE=Classical
TTITLE0=白鳥
TTITLE1=アヴェ・マリア
TTITLE2=ます
TTITLE3=無伴奏チェロ組曲第１番よりプレリュード
TTITLE4=G線上のアリア
TTITLE5=メヌエット
TTITLE6=メディテーション《アヴェ・マリア》
TTITLE7=月の光
TTITLE8=ノクターンロ短調遺作［原曲嬰ハ短調］
TTITLE9=楽興の時第３番
TTITLE10=トロイメライ
TTITLE11=アンダンテ・カンタービレ
TTITLE12=夢のあとに
TTITLE13=ヴォカリーズ
TTITLE14=セレナーデ
TTITLE15=愛の悲しみ
TTITLE16=美しい夕暮れ
TTITLE17=鳥の歌
EXTD=
EXTT0=
EXTT1=
EXTT2=
EXTT3=
EXTT4=
EXTT5=
EXTT6=
EXTT7=
EXTT8=
EXTT9=
EXTT10=
EXTT11=
EXTT12=
EXTT13=
EXTT14=
EXTT15=
EXTT16=
EXTT17=
PLAYORDER=
